<?xml version="1.0" encoding="UTF-8" standalone="no"?>
<svg viewBox="0 0 96 96" width="320" height="320" role="img" aria-label="community_member idle" style="opacity:1;"><defs><radialGradient id="bgcommunity_member" cx="50%" cy="36%" r="72%"><stop offset="0%" stop-color="#fbf7ee"/><stop offset="100%" stop-color="#f3fbf4"/></radialGradient><radialGradient id="facecommunity_member" cx="30%" cy="40%" r="70%"><stop offset="0%" stop-color="#b27852" stop-opacity="0.5"/><stop offset="55%" stop-color="#a9693f" stop-opacity="0"/><stop offset="100%" stop-color="#6e4429" stop-opacity="0.45"/></radialGradient><linearGradient id="hairshinecommunity_member" x1="0" y1="0" x2="0" y2="1"><stop offset="0%" stop-color="#575350" stop-opacity="0.55"/><stop offset="100%" stop-color="#1f1a15" stop-opacity="0"/></linearGradient><clipPath id="clipcommunity_member"><circle cx="48" cy="48" r="44"/></clipPath></defs><circle cx="48" cy="48" r="46" fill="url(#bgcommunity_member)" stroke="#3d6f59" stroke-width="3"/><g clip-path="url(#clipcommunity_member)"><g transform="translate(0,6)"><path d="M14 92 q34 -34 68 0 Z" fill="#3d6f59"/><path d="M22 92 q26 -30 52 0 q-26 -14 -52 0 Z" fill="#688f7e"/><path d="M40 66 q8 6 16 0 l-3 9 q-5 3 -10 0 Z" fill="#7fa091"/><path d="M42 56 q6 7 12 0 l1 9 q-7 6 -14 0 Z" fill="#875432"/><path d="M40 56 q8 8 16 0 l-1 4 q-7 5 -14 0 Z" fill="#6e4429" opacity="0.5"/><ellipse cx="32" cy="40" rx="3" ry="4.2" fill="#a9693f"/><ellipse cx="31.5" cy="41" rx="1.4" ry="2.4" fill="#6e4429" opacity="0.6"/><ellipse cx="64" cy="40" rx="3" ry="4.2" fill="#a9693f"/><ellipse cx="64.5" cy="41" rx="1.4" ry="2.4" fill="#6e4429" opacity="0.6"/><path d="M30 38 q0 -23 18 -23 q18 0 18 23 q0 17 -18 20 q-18 -3 -18 -20 Z" fill="#a9693f"/><path d="M30 38 q0 -23 18 -23 q18 0 18 23 q0 17 -18 20 q-18 -3 -18 -20 Z" fill="url(#facecommunity_member)"/><ellipse cx="36" cy="43" rx="3.2" ry="2.2" fill="#d8835a" opacity="0.18"/><ellipse cx="60" cy="43" rx="3.2" ry="2.2" fill="#d8835a" opacity="0.18"/><path d="M30 38 q-2 -24 18 -25 q20 1 18 25 q-3 -12 -18 -12 q-15 0 -18 12 Z" fill="#1f1a15"/><path d="M30 38 q-1 -8 3 -13 l2 4 q-3 5 -2 11 Z" fill="#171410"/><path d="M30 38 q-2 -24 18 -25 q20 1 18 25 q-3 -12 -18 -12 q-15 0 -18 12 Z" fill="url(#hairshinecommunity_member)"/><g transform="translate(48,38)"><path d="M-11 -10 q4 -1.5 8 0" stroke="#1f1a15" stroke-width="2.1" fill="none" stroke-linecap="round"/><path d="M3 -10 q4 -1.5 8 0" stroke="#1f1a15" stroke-width="2.1" fill="none" stroke-linecap="round"/><g transform="translate(-6.5,-3)"><ellipse cx="0" cy="0" rx="3" ry="3.4" fill="#fbf7ee"/><circle cx="0" cy="0.4" r="2" fill="#47433f"/><circle cx="0" cy="0.4" r="1" fill="#1c1714"/><circle cx="0.7" cy="-0.5" r="0.5" fill="#fff"/><path d="M-3.3 -3.4 q3.3 -2.2 6.6 0" fill="none" stroke="#caa377" stroke-width="0.8" opacity="0.7"/></g><g transform="translate(6.5,-3)"><ellipse cx="0" cy="0" rx="3" ry="3.4" fill="#fbf7ee"/><circle cx="0" cy="0.4" r="2" fill="#47433f"/><circle cx="0" cy="0.4" r="1" fill="#1c1714"/><circle cx="0.7" cy="-0.5" r="0.5" fill="#fff"/><path d="M-3.3 -3.4 q3.3 -2.2 6.6 0" fill="none" stroke="#caa377" stroke-width="0.8" opacity="0.7"/></g><path d="M-1 -2 q-1 6 0 8 q1 -1 2 0" stroke="#6e4429" stroke-width="1.1" fill="none" stroke-linecap="round" opacity="0.55"/><ellipse cx="0" cy="6.2" rx="1.6" ry="0.9" fill="#6e4429" opacity="0.35"/><path d="M-4 10.5 q4 -2 8 0" stroke="#8a4a3a" stroke-width="1.6" fill="none" stroke-linecap="round" opacity="0.5"/><path d="M-5 11 q5 1.5 10 0" stroke="#7a4a3c" stroke-width="2.2" fill="none" stroke-linecap="round"/></g><path d="M30 40 q-4 -28 18 -29 q22 1 18 29 q-2 -6 -6 -9 q3 14 -6 18 q4 -16 -6 -22 q-10 6 -6 22 q-9 -4 -6 -18 q-4 3 -6 9 Z" fill="#3d6f59"/><path d="M30 40 q2 -7 7 -10 q-2 6 -1 11 Z" fill="#688f7e"/></g></g><g transform="translate(20,80)"><circle r="9.5" fill="#fbf7ee" stroke="#3d6f59" stroke-width="2"/><text x="0" y="4" font-size="11" text-anchor="middle">🏘️</text></g></svg>