<?xml version="1.0" encoding="UTF-8" standalone="no"?>
<svg viewBox="0 0 96 96" width="320" height="320" role="img" aria-label="municipal_government idle" style="opacity:1;"><defs><radialGradient id="bgmunicipal_government" cx="50%" cy="36%" r="72%"><stop offset="0%" stop-color="#fbf7ee"/><stop offset="100%" stop-color="#effaf6"/></radialGradient><radialGradient id="facemunicipal_government" cx="30%" cy="40%" r="70%"><stop offset="0%" stop-color="#dcaa7d" stop-opacity="0.5"/><stop offset="55%" stop-color="#d8a06f" stop-opacity="0"/><stop offset="100%" stop-color="#8c6848" stop-opacity="0.45"/></radialGradient><linearGradient id="hairshinemunicipal_government" x1="0" y1="0" x2="0" y2="1"><stop offset="0%" stop-color="#6b635b" stop-opacity="0.55"/><stop offset="100%" stop-color="#3a2f24" stop-opacity="0"/></linearGradient><clipPath id="clipmunicipal_government"><circle cx="48" cy="48" r="44"/></clipPath></defs><circle cx="48" cy="48" r="46" fill="url(#bgmunicipal_government)" stroke="#2f6f5e" stroke-width="3"/><g clip-path="url(#clipmunicipal_government)"><g transform="translate(0,6)"><path d="M14 92 q34 -34 68 0 Z" fill="#2f6f5e"/><path d="M40 64 L48 90 L56 64 L48 70 Z" fill="#f1ece0"/><path d="M40 64 L31 80 L36 92 L44 70 Z" fill="#214e42"/><path d="M56 64 L65 80 L60 92 L52 70 Z" fill="#214e42"/><path d="M42 56 q6 7 12 0 l1 9 q-7 6 -14 0 Z" fill="#ad8059"/><path d="M40 56 q8 8 16 0 l-1 4 q-7 5 -14 0 Z" fill="#8c6848" opacity="0.5"/><ellipse cx="32" cy="40" rx="3" ry="4.2" fill="#d8a06f"/><ellipse cx="31.5" cy="41" rx="1.4" ry="2.4" fill="#8c6848" opacity="0.6"/><ellipse cx="64" cy="40" rx="3" ry="4.2" fill="#d8a06f"/><ellipse cx="64.5" cy="41" rx="1.4" ry="2.4" fill="#8c6848" opacity="0.6"/><path d="M30 38 q0 -23 18 -23 q18 0 18 23 q0 17 -18 20 q-18 -3 -18 -20 Z" fill="#d8a06f"/><path d="M30 38 q0 -23 18 -23 q18 0 18 23 q0 17 -18 20 q-18 -3 -18 -20 Z" fill="url(#facemunicipal_government)"/><ellipse cx="36" cy="43" rx="3.2" ry="2.2" fill="#d8835a" opacity="0.18"/><ellipse cx="60" cy="43" rx="3.2" ry="2.2" fill="#d8835a" opacity="0.18"/><path d="M30 38 q-2 -25 18 -25 q20 0 18 25 q-3 -13 -10 -13 q-3 0 -4 4 q-2 -4 -7 -4 q-5 0 -7 4 q-1 -4 -4 -4 q-7 0 -10 13 Z" fill="#3a2f24"/><path d="M30 38 q0 -10 5 -16 q-2 8 -1 14 Z" fill="#292119"/><path d="M30 38 q-2 -24 18 -25 q20 1 18 25 q-3 -12 -18 -12 q-15 0 -18 12 Z" fill="url(#hairshinemunicipal_government)"/><g transform="translate(48,38)"><path d="M-11 -10 q4 -1.5 8 0" stroke="#3a2f24" stroke-width="2.1" fill="none" stroke-linecap="round"/><path d="M3 -10 q4 -1.5 8 0" stroke="#3a2f24" stroke-width="2.1" fill="none" stroke-linecap="round"/><g transform="translate(-6.5,-3)"><ellipse cx="0" cy="0" rx="3" ry="3.4" fill="#fbf7ee"/><circle cx="0" cy="0.4" r="2" fill="#5d544b"/><circle cx="0" cy="0.4" r="1" fill="#1c1714"/><circle cx="0.7" cy="-0.5" r="0.5" fill="#fff"/><path d="M-3.3 -3.4 q3.3 -2.2 6.6 0" fill="none" stroke="#caa377" stroke-width="0.8" opacity="0.7"/></g><g transform="translate(6.5,-3)"><ellipse cx="0" cy="0" rx="3" ry="3.4" fill="#fbf7ee"/><circle cx="0" cy="0.4" r="2" fill="#5d544b"/><circle cx="0" cy="0.4" r="1" fill="#1c1714"/><circle cx="0.7" cy="-0.5" r="0.5" fill="#fff"/><path d="M-3.3 -3.4 q3.3 -2.2 6.6 0" fill="none" stroke="#caa377" stroke-width="0.8" opacity="0.7"/></g><path d="M-1 -2 q-1 6 0 8 q1 -1 2 0" stroke="#8c6848" stroke-width="1.1" fill="none" stroke-linecap="round" opacity="0.55"/><ellipse cx="0" cy="6.2" rx="1.6" ry="0.9" fill="#8c6848" opacity="0.35"/><path d="M-4 10.5 q4 -2 8 0" stroke="#8a4a3a" stroke-width="1.6" fill="none" stroke-linecap="round" opacity="0.5"/><path d="M-5 11 q5 1.5 10 0" stroke="#7a4a3c" stroke-width="2.2" fill="none" stroke-linecap="round"/></g><g fill="none" stroke="#18382f" stroke-width="1.5"><rect x="38" y="33" width="9" height="7.5" rx="2"/><rect x="49" y="33" width="9" height="7.5" rx="2"/><path d="M47 36 h2"/><path d="M38 35 l-4 -1"/><path d="M58 35 l4 -1"/></g></g></g><g transform="translate(20,80)"><circle r="9.5" fill="#fbf7ee" stroke="#2f6f5e" stroke-width="2"/><text x="0" y="4" font-size="11" text-anchor="middle">🏙️</text></g></svg>