<?xml version="1.0" encoding="UTF-8" standalone="no"?>
<svg viewBox="0 0 96 96" width="320" height="320" role="img" aria-label="ngo_civil_society idle" style="opacity:1;"><defs><radialGradient id="bgngo_civil_society" cx="50%" cy="36%" r="72%"><stop offset="0%" stop-color="#fbf7ee"/><stop offset="100%" stop-color="#edf9f1"/></radialGradient><radialGradient id="facengo_civil_society" cx="30%" cy="40%" r="70%"><stop offset="0%" stop-color="#bd865c" stop-opacity="0.5"/><stop offset="55%" stop-color="#b6794a" stop-opacity="0"/><stop offset="100%" stop-color="#764f30" stop-opacity="0.45"/></radialGradient><linearGradient id="hairshinengo_civil_society" x1="0" y1="0" x2="0" y2="1"><stop offset="0%" stop-color="#5b5652" stop-opacity="0.55"/><stop offset="100%" stop-color="#241d18" stop-opacity="0"/></linearGradient><clipPath id="clipngo_civil_society"><circle cx="48" cy="48" r="44"/></clipPath></defs><circle cx="48" cy="48" r="46" fill="url(#bgngo_civil_society)" stroke="#1f7a4c" stroke-width="3"/><g clip-path="url(#clipngo_civil_society)"><g transform="translate(0,6)"><path d="M14 92 q34 -34 68 0 Z" fill="#1f7a4c"/><rect x="46.5" y="64" width="3" height="28" fill="#13492e"/><path d="M38 66 q10 -5 20 0 l-2 5 q-8 -4 -16 0 Z" fill="#165837"/><path d="M42 56 q6 7 12 0 l1 9 q-7 6 -14 0 Z" fill="#92613b"/><path d="M40 56 q8 8 16 0 l-1 4 q-7 5 -14 0 Z" fill="#764f30" opacity="0.5"/><ellipse cx="32" cy="40" rx="3" ry="4.2" fill="#b6794a"/><ellipse cx="31.5" cy="41" rx="1.4" ry="2.4" fill="#764f30" opacity="0.6"/><ellipse cx="64" cy="40" rx="3" ry="4.2" fill="#b6794a"/><ellipse cx="64.5" cy="41" rx="1.4" ry="2.4" fill="#764f30" opacity="0.6"/><path d="M30 38 q0 -23 18 -23 q18 0 18 23 q0 17 -18 20 q-18 -3 -18 -20 Z" fill="#b6794a"/><path d="M30 38 q0 -23 18 -23 q18 0 18 23 q0 17 -18 20 q-18 -3 -18 -20 Z" fill="url(#facengo_civil_society)"/><ellipse cx="36" cy="43" rx="3.2" ry="2.2" fill="#d8835a" opacity="0.18"/><ellipse cx="60" cy="43" rx="3.2" ry="2.2" fill="#d8835a" opacity="0.18"/><path d="M30 38 q-3 -27 18 -27 q21 0 18 27 q-1 -10 -6 -12 q-1 4 -4 5 q-1 -5 -6 -5 q-5 0 -6 5 q-3 -1 -4 -5 q-5 2 -10 12 Z" fill="#241d18"/><path d="M62 24 q4 4 5 12 q-3 -5 -7 -7 Z" fill="#191411"/><path d="M30 38 q-2 -24 18 -25 q20 1 18 25 q-3 -12 -18 -12 q-15 0 -18 12 Z" fill="url(#hairshinengo_civil_society)"/><g transform="translate(48,38)"><path d="M-11 -10 q4 -1.5 8 0" stroke="#241d18" stroke-width="2.1" fill="none" stroke-linecap="round"/><path d="M3 -10 q4 -1.5 8 0" stroke="#241d18" stroke-width="2.1" fill="none" stroke-linecap="round"/><g transform="translate(-6.5,-3)"><ellipse cx="0" cy="0" rx="3" ry="3.4" fill="#fbf7ee"/><circle cx="0" cy="0.4" r="2" fill="#4b4642"/><circle cx="0" cy="0.4" r="1" fill="#1c1714"/><circle cx="0.7" cy="-0.5" r="0.5" fill="#fff"/><path d="M-3.3 -3.4 q3.3 -2.2 6.6 0" fill="none" stroke="#caa377" stroke-width="0.8" opacity="0.7"/></g><g transform="translate(6.5,-3)"><ellipse cx="0" cy="0" rx="3" ry="3.4" fill="#fbf7ee"/><circle cx="0" cy="0.4" r="2" fill="#4b4642"/><circle cx="0" cy="0.4" r="1" fill="#1c1714"/><circle cx="0.7" cy="-0.5" r="0.5" fill="#fff"/><path d="M-3.3 -3.4 q3.3 -2.2 6.6 0" fill="none" stroke="#caa377" stroke-width="0.8" opacity="0.7"/></g><path d="M-1 -2 q-1 6 0 8 q1 -1 2 0" stroke="#764f30" stroke-width="1.1" fill="none" stroke-linecap="round" opacity="0.55"/><ellipse cx="0" cy="6.2" rx="1.6" ry="0.9" fill="#764f30" opacity="0.35"/><path d="M-4 10.5 q4 -2 8 0" stroke="#8a4a3a" stroke-width="1.6" fill="none" stroke-linecap="round" opacity="0.5"/><path d="M-5 11 q5 1.5 10 0" stroke="#7a4a3c" stroke-width="2.2" fill="none" stroke-linecap="round"/></g><path d="M44 60 L47 78" stroke="#11432a" stroke-width="2" fill="none"/><path d="M54 60 L51 78" stroke="#11432a" stroke-width="2" fill="none"/><rect x="44" y="78" width="10" height="7" rx="1.5" fill="#f4efe2" stroke="#165535" stroke-width="0.8"/></g></g><g transform="translate(20,80)"><circle r="9.5" fill="#fbf7ee" stroke="#1f7a4c" stroke-width="2"/><text x="0" y="4" font-size="11" text-anchor="middle">🌿</text></g></svg>