<?xml version="1.0" encoding="UTF-8" standalone="no"?>
<svg viewBox="0 0 96 96" width="320" height="320" role="img" aria-label="national_government idle" style="opacity:1;"><defs><radialGradient id="bgnational_government" cx="50%" cy="36%" r="72%"><stop offset="0%" stop-color="#fbf7ee"/><stop offset="100%" stop-color="#eef8f1"/></radialGradient><radialGradient id="facenational_government" cx="30%" cy="40%" r="70%"><stop offset="0%" stop-color="#ce966e" stop-opacity="0.5"/><stop offset="55%" stop-color="#c98a5e" stop-opacity="0"/><stop offset="100%" stop-color="#835a3d" stop-opacity="0.45"/></radialGradient><linearGradient id="hairshinenational_government" x1="0" y1="0" x2="0" y2="1"><stop offset="0%" stop-color="#605b56" stop-opacity="0.55"/><stop offset="100%" stop-color="#2b241d" stop-opacity="0"/></linearGradient><clipPath id="clipnational_government"><circle cx="48" cy="48" r="44"/></clipPath></defs><circle cx="48" cy="48" r="46" fill="url(#bgnational_government)" stroke="#245c4a" stroke-width="3"/><g clip-path="url(#clipnational_government)"><g transform="translate(0,6)"><path d="M14 92 q34 -34 68 0 Z" fill="#183f32"/><path d="M40 64 L48 92 L56 64 L48 70 Z" fill="#f4efe2"/><path d="M45 66 L48 72 L51 66 L48 64 Z" fill="#245c4a"/><path d="M48 72 L44 90 L52 90 Z" fill="#205141"/><path d="M40 64 L30 78 L34 92 L42 70 Z" fill="#143329"/><path d="M56 64 L66 78 L62 92 L54 70 Z" fill="#143329"/><path d="M42 56 q6 7 12 0 l1 9 q-7 6 -14 0 Z" fill="#a16e4b"/><path d="M40 56 q8 8 16 0 l-1 4 q-7 5 -14 0 Z" fill="#835a3d" opacity="0.5"/><ellipse cx="32" cy="40" rx="3" ry="4.2" fill="#c98a5e"/><ellipse cx="31.5" cy="41" rx="1.4" ry="2.4" fill="#835a3d" opacity="0.6"/><ellipse cx="64" cy="40" rx="3" ry="4.2" fill="#c98a5e"/><ellipse cx="64.5" cy="41" rx="1.4" ry="2.4" fill="#835a3d" opacity="0.6"/><path d="M30 38 q0 -23 18 -23 q18 0 18 23 q0 17 -18 20 q-18 -3 -18 -20 Z" fill="#c98a5e"/><path d="M30 38 q0 -23 18 -23 q18 0 18 23 q0 17 -18 20 q-18 -3 -18 -20 Z" fill="url(#facenational_government)"/><ellipse cx="36" cy="43" rx="3.2" ry="2.2" fill="#d8835a" opacity="0.18"/><ellipse cx="60" cy="43" rx="3.2" ry="2.2" fill="#d8835a" opacity="0.18"/><path d="M30 38 q-2 -24 18 -25 q20 1 18 25 q-3 -14 -18 -14 q-15 0 -18 14 Z" fill="#2b241d"/><path d="M48 13 q-6 4 -10 11 q3 -5 10 -5 q7 0 10 5 q-4 -7 -10 -11 Z" fill="#1e1914"/><path d="M32 28 q-1 5 0 9 q1 -4 3 -7 Z" fill="#75716c" opacity="0.7"/><path d="M30 38 q-2 -24 18 -25 q20 1 18 25 q-3 -12 -18 -12 q-15 0 -18 12 Z" fill="url(#hairshinenational_government)"/><g transform="translate(48,38)"><path d="M-11 -10 q4 -1.5 8 0" stroke="#2b241d" stroke-width="2.1" fill="none" stroke-linecap="round"/><path d="M3 -10 q4 -1.5 8 0" stroke="#2b241d" stroke-width="2.1" fill="none" stroke-linecap="round"/><g transform="translate(-6.5,-3)"><ellipse cx="0" cy="0" rx="3" ry="3.4" fill="#fbf7ee"/><circle cx="0" cy="0.4" r="2" fill="#514b46"/><circle cx="0" cy="0.4" r="1" fill="#1c1714"/><circle cx="0.7" cy="-0.5" r="0.5" fill="#fff"/><path d="M-3.3 -3.4 q3.3 -2.2 6.6 0" fill="none" stroke="#caa377" stroke-width="0.8" opacity="0.7"/></g><g transform="translate(6.5,-3)"><ellipse cx="0" cy="0" rx="3" ry="3.4" fill="#fbf7ee"/><circle cx="0" cy="0.4" r="2" fill="#514b46"/><circle cx="0" cy="0.4" r="1" fill="#1c1714"/><circle cx="0.7" cy="-0.5" r="0.5" fill="#fff"/><path d="M-3.3 -3.4 q3.3 -2.2 6.6 0" fill="none" stroke="#caa377" stroke-width="0.8" opacity="0.7"/></g><path d="M-1 -2 q-1 6 0 8 q1 -1 2 0" stroke="#835a3d" stroke-width="1.1" fill="none" stroke-linecap="round" opacity="0.55"/><ellipse cx="0" cy="6.2" rx="1.6" ry="0.9" fill="#835a3d" opacity="0.35"/><path d="M-4 10.5 q4 -2 8 0" stroke="#8a4a3a" stroke-width="1.6" fill="none" stroke-linecap="round" opacity="0.5"/><path d="M-5 11 q5 1.5 10 0" stroke="#7a4a3c" stroke-width="2.2" fill="none" stroke-linecap="round"/></g><g fill="none" stroke="#122e25" stroke-width="1.5"><rect x="38" y="33" width="9" height="7.5" rx="2"/><rect x="49" y="33" width="9" height="7.5" rx="2"/><path d="M47 36 h2"/><path d="M38 35 l-4 -1"/><path d="M58 35 l4 -1"/></g></g></g><g transform="translate(20,80)"><circle r="9.5" fill="#fbf7ee" stroke="#245c4a" stroke-width="2"/><text x="0" y="4" font-size="11" text-anchor="middle">🏛️</text></g></svg>