<?xml version="1.0" encoding="UTF-8" standalone="no"?>
<svg viewBox="0 0 96 96" width="320" height="320" role="img" aria-label="informal_sector_worker idle" style="opacity:1;"><defs><radialGradient id="bginformal_sector_worker" cx="50%" cy="36%" r="72%"><stop offset="0%" stop-color="#fbf7ee"/><stop offset="100%" stop-color="#edf9f0"/></radialGradient><radialGradient id="faceinformal_sector_worker" cx="30%" cy="40%" r="70%"><stop offset="0%" stop-color="#a66f4c" stop-opacity="0.5"/><stop offset="55%" stop-color="#9c5f38" stop-opacity="0"/><stop offset="100%" stop-color="#653e24" stop-opacity="0.45"/></radialGradient><linearGradient id="hairshineinformal_sector_worker" x1="0" y1="0" x2="0" y2="1"><stop offset="0%" stop-color="#55514e" stop-opacity="0.55"/><stop offset="100%" stop-color="#1c1713" stop-opacity="0"/></linearGradient><clipPath id="clipinformal_sector_worker"><circle cx="48" cy="48" r="44"/></clipPath></defs><circle cx="48" cy="48" r="46" fill="url(#bginformal_sector_worker)" stroke="#157347" stroke-width="3"/><g clip-path="url(#clipinformal_sector_worker)"><g transform="translate(0,6)"><path d="M14 92 q34 -34 68 0 Z" fill="#157347"/><path d="M38 66 q10 5 20 0 l-1 7 q-9 4 -18 0 Z" fill="#105a37"/><path d="M30 74 L40 70 L42 92 L30 92 Z" fill="#d6c34a"/><path d="M66 74 L56 70 L54 92 L66 92 Z" fill="#d6c34a"/><path d="M42 56 q6 7 12 0 l1 9 q-7 6 -14 0 Z" fill="#7d4c2d"/><path d="M40 56 q8 8 16 0 l-1 4 q-7 5 -14 0 Z" fill="#653e24" opacity="0.5"/><ellipse cx="32" cy="40" rx="3" ry="4.2" fill="#9c5f38"/><ellipse cx="31.5" cy="41" rx="1.4" ry="2.4" fill="#653e24" opacity="0.6"/><ellipse cx="64" cy="40" rx="3" ry="4.2" fill="#9c5f38"/><ellipse cx="64.5" cy="41" rx="1.4" ry="2.4" fill="#653e24" opacity="0.6"/><path d="M30 38 q0 -23 18 -23 q18 0 18 23 q0 17 -18 20 q-18 -3 -18 -20 Z" fill="#9c5f38"/><path d="M30 38 q0 -23 18 -23 q18 0 18 23 q0 17 -18 20 q-18 -3 -18 -20 Z" fill="url(#faceinformal_sector_worker)"/><ellipse cx="36" cy="43" rx="3.2" ry="2.2" fill="#d8835a" opacity="0.18"/><ellipse cx="60" cy="43" rx="3.2" ry="2.2" fill="#d8835a" opacity="0.18"/><path d="M30 38 q-2 -24 18 -25 q20 1 18 25 q-3 -12 -18 -12 q-15 0 -18 12 Z" fill="#1c1713"/><path d="M30 38 q-1 -8 3 -13 l2 4 q-3 5 -2 11 Z" fill="#15110e"/><path d="M30 38 q-2 -24 18 -25 q20 1 18 25 q-3 -12 -18 -12 q-15 0 -18 12 Z" fill="url(#hairshineinformal_sector_worker)"/><g transform="translate(48,38)"><path d="M-11 -10 q4 -1.5 8 0" stroke="#1c1713" stroke-width="2.1" fill="none" stroke-linecap="round"/><path d="M3 -10 q4 -1.5 8 0" stroke="#1c1713" stroke-width="2.1" fill="none" stroke-linecap="round"/><g transform="translate(-6.5,-3)"><ellipse cx="0" cy="0" rx="3" ry="3.4" fill="#fbf7ee"/><circle cx="0" cy="0.4" r="2" fill="#45413d"/><circle cx="0" cy="0.4" r="1" fill="#1c1714"/><circle cx="0.7" cy="-0.5" r="0.5" fill="#fff"/><path d="M-3.3 -3.4 q3.3 -2.2 6.6 0" fill="none" stroke="#caa377" stroke-width="0.8" opacity="0.7"/></g><g transform="translate(6.5,-3)"><ellipse cx="0" cy="0" rx="3" ry="3.4" fill="#fbf7ee"/><circle cx="0" cy="0.4" r="2" fill="#45413d"/><circle cx="0" cy="0.4" r="1" fill="#1c1714"/><circle cx="0.7" cy="-0.5" r="0.5" fill="#fff"/><path d="M-3.3 -3.4 q3.3 -2.2 6.6 0" fill="none" stroke="#caa377" stroke-width="0.8" opacity="0.7"/></g><path d="M-1 -2 q-1 6 0 8 q1 -1 2 0" stroke="#653e24" stroke-width="1.1" fill="none" stroke-linecap="round" opacity="0.55"/><ellipse cx="0" cy="6.2" rx="1.6" ry="0.9" fill="#653e24" opacity="0.35"/><path d="M-4 10.5 q4 -2 8 0" stroke="#8a4a3a" stroke-width="1.6" fill="none" stroke-linecap="round" opacity="0.5"/><path d="M-5 11 q5 1.5 10 0" stroke="#7a4a3c" stroke-width="2.2" fill="none" stroke-linecap="round"/></g><path d="M33 30 q15 -15 30 0 q-15 -7 -30 0 Z" fill="#115c39"/><path d="M30 30 q-7 1 -9 4 q10 -1 12 -3 Z" fill="#0e4b2e"/></g></g><g transform="translate(20,80)"><circle r="9.5" fill="#fbf7ee" stroke="#157347" stroke-width="2"/><text x="0" y="4" font-size="11" text-anchor="middle">♻️</text></g></svg>