<?xml version="1.0" encoding="UTF-8" standalone="no"?>
<svg xmlns="http://www.w3.org/2000/svg" xmlns:xlink="http://www.w3.org/1999/xlink" viewBox="0 0 360 160" preserveAspectRatio="none" height="160"><defs><linearGradient id="skyc100" x1="0" y1="0" x2="0" y2="1"><stop offset="0%" stop-color="#cfe3f0"/><stop offset="55%" stop-color="#dde9d3"/><stop offset="100%" stop-color="#eaf3e4"/></linearGradient><radialGradient id="sunc100" cx="50%" cy="50%" r="50%"><stop offset="0%" stop-color="#fff3c8" stop-opacity="1"/><stop offset="60%" stop-color="#f7d98a" stop-opacity="0.5"/><stop offset="100%" stop-color="#f7d98a" stop-opacity="0"/></radialGradient><linearGradient id="moundc100" x1="0" y1="0" x2="0" y2="1"><stop offset="0%" stop-color="#5e8a48"/><stop offset="100%" stop-color="#4b6e3a"/></linearGradient></defs><rect width="360" height="160" fill="url(#skyc100)"/><g opacity="0.75"><circle cx="295" cy="42" r="22" fill="url(#sunc100)"/><circle cx="295" cy="42" r="10" fill="#fff3c8" opacity="0.9"/></g><g opacity="0.8"><g><ellipse cx="60" cy="32" rx="22" ry="6" fill="#fff" opacity="0.9"/><ellipse cx="78" cy="30" rx="14" ry="5" fill="#fff" opacity="0.9"/><animateTransform attributeName="transform" type="translate" values="0,0;30,0;0,0" dur="38s" repeatCount="indefinite"/></g><g><ellipse cx="190" cy="22" rx="18" ry="5" fill="#fff" opacity="0.85"/><ellipse cx="205" cy="21" rx="11" ry="4" fill="#fff" opacity="0.85"/><animateTransform attributeName="transform" type="translate" values="0,0;-22,0;0,0" dur="46s" repeatCount="indefinite"/></g></g><path d="M0 110 q60 -22 120 -8 q60 14 120 -4 q60 -16 120 6 L360 130 L0 130 Z" fill="#7a9a5e" opacity="0.55"/><rect x="20" y="62" width="26" height="72" fill="#5e7d4f"/><rect x="20" y="62" width="9" height="72" fill="#49623e" opacity="0.55"/><rect x="22" y="66" width="3" height="3" fill="#fff2c8" opacity="0.95"/><rect x="29" y="66" width="3" height="3" fill="#49623e" opacity="0.4"/><rect x="36" y="66" width="3" height="3" fill="#49623e" opacity="0.4"/><rect x="22" y="74" width="3" height="3" fill="#49623e" opacity="0.4"/><rect x="29" y="74" width="3" height="3" fill="#49623e" opacity="0.4"/><rect x="36" y="74" width="3" height="3" fill="#fff2c8" opacity="0.95"/><rect x="22" y="82" width="3" height="3" fill="#49623e" opacity="0.4"/><rect x="29" y="82" width="3" height="3" fill="#49623e" opacity="0.4"/><rect x="36" y="82" width="3" height="3" fill="#49623e" opacity="0.4"/><rect x="22" y="90" width="3" height="3" fill="#49623e" opacity="0.4"/><rect x="29" y="90" width="3" height="3" fill="#fff2c8" opacity="0.95"/><rect x="36" y="90" width="3" height="3" fill="#49623e" opacity="0.4"/><rect x="22" y="98" width="3" height="3" fill="#49623e" opacity="0.4"/><rect x="29" y="98" width="3" height="3" fill="#49623e" opacity="0.4"/><rect x="36" y="98" width="3" height="3" fill="#49623e" opacity="0.4"/><rect x="22" y="106" width="3" height="3" fill="#fff2c8" opacity="0.95"/><rect x="29" y="106" width="3" height="3" fill="#49623e" opacity="0.4"/><rect x="36" y="106" width="3" height="3" fill="#49623e" opacity="0.4"/><rect x="22" y="114" width="3" height="3" fill="#49623e" opacity="0.4"/><rect x="29" y="114" width="3" height="3" fill="#49623e" opacity="0.4"/><rect x="36" y="114" width="3" height="3" fill="#fff2c8" opacity="0.95"/><rect x="22" y="122" width="3" height="3" fill="#49623e" opacity="0.4"/><rect x="29" y="122" width="3" height="3" fill="#49623e" opacity="0.4"/><rect x="36" y="122" width="3" height="3" fill="#49623e" opacity="0.4"/><rect x="22" y="130" width="3" height="3" fill="#49623e" opacity="0.4"/><rect x="29" y="130" width="3" height="3" fill="#fff2c8" opacity="0.95"/><rect x="36" y="130" width="3" height="3" fill="#49623e" opacity="0.4"/><rect x="50" y="48" width="22" height="86" fill="#5e7d4f"/><rect x="50" y="48" width="7" height="86" fill="#49623e" opacity="0.55"/><line x1="61.0" y1="48" x2="61.0" y2="40" stroke="#49623e" stroke-width="1.5"/><rect x="52" y="52" width="3" height="3" fill="#49623e" opacity="0.4"/><rect x="59" y="52" width="3" height="3" fill="#49623e" opacity="0.4"/><rect x="66" y="52" width="3" height="3" fill="#49623e" opacity="0.4"/><rect x="52" y="60" width="3" height="3" fill="#fff2c8" opacity="0.95"/><rect x="59" y="60" width="3" height="3" fill="#49623e" opacity="0.4"/><rect x="66" y="60" width="3" height="3" fill="#49623e" opacity="0.4"/><rect x="52" y="68" width="3" height="3" fill="#49623e" opacity="0.4"/><rect x="59" y="68" width="3" height="3" fill="#49623e" opacity="0.4"/><rect x="66" y="68" width="3" height="3" fill="#fff2c8" opacity="0.95"/><rect x="52" y="76" width="3" height="3" fill="#49623e" opacity="0.4"/><rect x="59" y="76" width="3" height="3" fill="#49623e" opacity="0.4"/><rect x="66" y="76" width="3" height="3" fill="#49623e" opacity="0.4"/><rect x="52" y="84" width="3" height="3" fill="#49623e" opacity="0.4"/><rect x="59" y="84" width="3" height="3" fill="#fff2c8" opacity="0.95"/><rect x="66" y="84" width="3" height="3" fill="#49623e" opacity="0.4"/><rect x="52" y="92" width="3" height="3" fill="#49623e" opacity="0.4"/><rect x="59" y="92" width="3" height="3" fill="#49623e" opacity="0.4"/><rect x="66" y="92" width="3" height="3" fill="#49623e" opacity="0.4"/><rect x="52" y="100" width="3" height="3" fill="#fff2c8" opacity="0.95"/><rect x="59" y="100" width="3" height="3" fill="#49623e" opacity="0.4"/><rect x="66" y="100" width="3" height="3" fill="#49623e" opacity="0.4"/><rect x="52" y="108" width="3" height="3" fill="#49623e" opacity="0.4"/><rect x="59" y="108" width="3" height="3" fill="#49623e" opacity="0.4"/><rect x="66" y="108" width="3" height="3" fill="#fff2c8" opacity="0.95"/><rect x="52" y="116" width="3" height="3" fill="#49623e" opacity="0.4"/><rect x="59" y="116" width="3" height="3" fill="#49623e" opacity="0.4"/><rect x="66" y="116" width="3" height="3" fill="#49623e" opacity="0.4"/><rect x="52" y="124" width="3" height="3" fill="#49623e" opacity="0.4"/><rect x="59" y="124" width="3" height="3" fill="#fff2c8" opacity="0.95"/><rect x="66" y="124" width="3" height="3" fill="#49623e" opacity="0.4"/><rect x="76" y="70" width="30" height="64" fill="#5e7d4f"/><rect x="76" y="70" width="10" height="64" fill="#49623e" opacity="0.55"/><rect x="78" y="74" width="3" height="3" fill="#49623e" opacity="0.4"/><rect x="85" y="74" width="3" height="3" fill="#fff2c8" opacity="0.95"/><rect x="92" y="74" width="3" height="3" fill="#49623e" opacity="0.4"/><rect x="99" y="74" width="3" height="3" fill="#49623e" opacity="0.4"/><rect x="78" y="82" width="3" height="3" fill="#49623e" opacity="0.4"/><rect x="85" y="82" width="3" height="3" fill="#49623e" opacity="0.4"/><rect x="92" y="82" width="3" height="3" fill="#49623e" opacity="0.4"/><rect x="99" y="82" width="3" height="3" fill="#fff2c8" opacity="0.95"/><rect x="78" y="90" width="3" height="3" fill="#fff2c8" opacity="0.95"/><rect x="85" y="90" width="3" height="3" fill="#49623e" opacity="0.4"/><rect x="92" y="90" width="3" height="3" fill="#49623e" opacity="0.4"/><rect x="99" y="90" width="3" height="3" fill="#49623e" opacity="0.4"/><rect x="78" y="98" width="3" height="3" fill="#49623e" opacity="0.4"/><rect x="85" y="98" width="3" height="3" fill="#49623e" opacity="0.4"/><rect x="92" y="98" width="3" height="3" fill="#fff2c8" opacity="0.95"/><rect x="99" y="98" width="3" height="3" fill="#49623e" opacity="0.4"/><rect x="78" y="106" width="3" height="3" fill="#49623e" opacity="0.4"/><rect x="85" y="106" width="3" height="3" fill="#49623e" opacity="0.4"/><rect x="92" y="106" width="3" height="3" fill="#49623e" opacity="0.4"/><rect x="99" y="106" width="3" height="3" fill="#49623e" opacity="0.4"/><rect x="78" y="114" width="3" height="3" fill="#49623e" opacity="0.4"/><rect x="85" y="114" width="3" height="3" fill="#fff2c8" opacity="0.95"/><rect x="92" y="114" width="3" height="3" fill="#49623e" opacity="0.4"/><rect x="99" y="114" width="3" height="3" fill="#49623e" opacity="0.4"/><rect x="78" y="122" width="3" height="3" fill="#49623e" opacity="0.4"/><rect x="85" y="122" width="3" height="3" fill="#49623e" opacity="0.4"/><rect x="92" y="122" width="3" height="3" fill="#49623e" opacity="0.4"/><rect x="99" y="122" width="3" height="3" fill="#fff2c8" opacity="0.95"/><rect x="78" y="130" width="3" height="3" fill="#fff2c8" opacity="0.95"/><rect x="85" y="130" width="3" height="3" fill="#49623e" opacity="0.4"/><rect x="92" y="130" width="3" height="3" fill="#49623e" opacity="0.4"/><rect x="99" y="130" width="3" height="3" fill="#49623e" opacity="0.4"/><rect x="112" y="56" width="24" height="78" fill="#5e7d4f"/><rect x="112" y="56" width="8" height="78" fill="#49623e" opacity="0.55"/><rect x="114" y="60" width="3" height="3" fill="#49623e" opacity="0.4"/><rect x="121" y="60" width="3" height="3" fill="#49623e" opacity="0.4"/><rect x="128" y="60" width="3" height="3" fill="#49623e" opacity="0.4"/><rect x="114" y="68" width="3" height="3" fill="#49623e" opacity="0.4"/><rect x="121" y="68" width="3" height="3" fill="#fff2c8" opacity="0.95"/><rect x="128" y="68" width="3" height="3" fill="#49623e" opacity="0.4"/><rect x="114" y="76" width="3" height="3" fill="#49623e" opacity="0.4"/><rect x="121" y="76" width="3" height="3" fill="#49623e" opacity="0.4"/><rect x="128" y="76" width="3" height="3" fill="#49623e" opacity="0.4"/><rect x="114" y="84" width="3" height="3" fill="#fff2c8" opacity="0.95"/><rect x="121" y="84" width="3" height="3" fill="#49623e" opacity="0.4"/><rect x="128" y="84" width="3" height="3" fill="#49623e" opacity="0.4"/><rect x="114" y="92" width="3" height="3" fill="#49623e" opacity="0.4"/><rect x="121" y="92" width="3" height="3" fill="#49623e" opacity="0.4"/><rect x="128" y="92" width="3" height="3" fill="#fff2c8" opacity="0.95"/><rect x="114" y="100" width="3" height="3" fill="#49623e" opacity="0.4"/><rect x="121" y="100" width="3" height="3" fill="#49623e" opacity="0.4"/><rect x="128" y="100" width="3" height="3" fill="#49623e" opacity="0.4"/><rect x="114" y="108" width="3" height="3" fill="#49623e" opacity="0.4"/><rect x="121" y="108" width="3" height="3" fill="#fff2c8" opacity="0.95"/><rect x="128" y="108" width="3" height="3" fill="#49623e" opacity="0.4"/><rect x="114" y="116" width="3" height="3" fill="#49623e" opacity="0.4"/><rect x="121" y="116" width="3" height="3" fill="#49623e" opacity="0.4"/><rect x="128" y="116" width="3" height="3" fill="#49623e" opacity="0.4"/><rect x="114" y="124" width="3" height="3" fill="#fff2c8" opacity="0.95"/><rect x="121" y="124" width="3" height="3" fill="#49623e" opacity="0.4"/><rect x="128" y="124" width="3" height="3" fill="#49623e" opacity="0.4"/><rect x="142" y="64" width="18" height="70" fill="#5e7d4f"/><rect x="142" y="64" width="6" height="70" fill="#49623e" opacity="0.55"/><rect x="144" y="68" width="3" height="3" fill="#49623e" opacity="0.4"/><rect x="151" y="68" width="3" height="3" fill="#49623e" opacity="0.4"/><rect x="144" y="76" width="3" height="3" fill="#49623e" opacity="0.4"/><rect x="151" y="76" width="3" height="3" fill="#49623e" opacity="0.4"/><rect x="144" y="84" width="3" height="3" fill="#49623e" opacity="0.4"/><rect x="151" y="84" width="3" height="3" fill="#fff2c8" opacity="0.95"/><rect x="144" y="92" width="3" height="3" fill="#49623e" opacity="0.4"/><rect x="151" y="92" width="3" height="3" fill="#49623e" opacity="0.4"/><rect x="144" y="100" width="3" height="3" fill="#fff2c8" opacity="0.95"/><rect x="151" y="100" width="3" height="3" fill="#49623e" opacity="0.4"/><rect x="144" y="108" width="3" height="3" fill="#49623e" opacity="0.4"/><rect x="151" y="108" width="3" height="3" fill="#49623e" opacity="0.4"/><rect x="144" y="116" width="3" height="3" fill="#49623e" opacity="0.4"/><rect x="151" y="116" width="3" height="3" fill="#49623e" opacity="0.4"/><rect x="144" y="124" width="3" height="3" fill="#49623e" opacity="0.4"/><rect x="151" y="124" width="3" height="3" fill="#fff2c8" opacity="0.95"/><rect x="164" y="50" width="26" height="84" fill="#5e7d4f"/><rect x="164" y="50" width="9" height="84" fill="#49623e" opacity="0.55"/><line x1="177.0" y1="50" x2="177.0" y2="42" stroke="#49623e" stroke-width="1.5"/><rect x="166" y="54" width="3" height="3" fill="#fff2c8" opacity="0.95"/><rect x="173" y="54" width="3" height="3" fill="#49623e" opacity="0.4"/><rect x="180" y="54" width="3" height="3" fill="#49623e" opacity="0.4"/><rect x="166" y="62" width="3" height="3" fill="#49623e" opacity="0.4"/><rect x="173" y="62" width="3" height="3" fill="#49623e" opacity="0.4"/><rect x="180" y="62" width="3" height="3" fill="#fff2c8" opacity="0.95"/><rect x="166" y="70" width="3" height="3" fill="#49623e" opacity="0.4"/><rect x="173" y="70" width="3" height="3" fill="#49623e" opacity="0.4"/><rect x="180" y="70" width="3" height="3" fill="#49623e" opacity="0.4"/><rect x="166" y="78" width="3" height="3" fill="#49623e" opacity="0.4"/><rect x="173" y="78" width="3" height="3" fill="#fff2c8" opacity="0.95"/><rect x="180" y="78" width="3" height="3" fill="#49623e" opacity="0.4"/><rect x="166" y="86" width="3" height="3" fill="#49623e" opacity="0.4"/><rect x="173" y="86" width="3" height="3" fill="#49623e" opacity="0.4"/><rect x="180" y="86" width="3" height="3" fill="#49623e" opacity="0.4"/><rect x="166" y="94" width="3" height="3" fill="#fff2c8" opacity="0.95"/><rect x="173" y="94" width="3" height="3" fill="#49623e" opacity="0.4"/><rect x="180" y="94" width="3" height="3" fill="#49623e" opacity="0.4"/><rect x="166" y="102" width="3" height="3" fill="#49623e" opacity="0.4"/><rect x="173" y="102" width="3" height="3" fill="#49623e" opacity="0.4"/><rect x="180" y="102" width="3" height="3" fill="#fff2c8" opacity="0.95"/><rect x="166" y="110" width="3" height="3" fill="#49623e" opacity="0.4"/><rect x="173" y="110" width="3" height="3" fill="#49623e" opacity="0.4"/><rect x="180" y="110" width="3" height="3" fill="#49623e" opacity="0.4"/><rect x="166" y="118" width="3" height="3" fill="#49623e" opacity="0.4"/><rect x="173" y="118" width="3" height="3" fill="#fff2c8" opacity="0.95"/><rect x="180" y="118" width="3" height="3" fill="#49623e" opacity="0.4"/><rect x="166" y="126" width="3" height="3" fill="#49623e" opacity="0.4"/><rect x="173" y="126" width="3" height="3" fill="#49623e" opacity="0.4"/><rect x="180" y="126" width="3" height="3" fill="#49623e" opacity="0.4"/><rect x="196" y="68" width="20" height="66" fill="#5e7d4f"/><rect x="196" y="68" width="7" height="66" fill="#49623e" opacity="0.55"/><rect x="198" y="72" width="3" height="3" fill="#49623e" opacity="0.4"/><rect x="205" y="72" width="3" height="3" fill="#49623e" opacity="0.4"/><rect x="198" y="80" width="3" height="3" fill="#fff2c8" opacity="0.95"/><rect x="205" y="80" width="3" height="3" fill="#49623e" opacity="0.4"/><rect x="198" y="88" width="3" height="3" fill="#49623e" opacity="0.4"/><rect x="205" y="88" width="3" height="3" fill="#49623e" opacity="0.4"/><rect x="198" y="96" width="3" height="3" fill="#49623e" opacity="0.4"/><rect x="205" y="96" width="3" height="3" fill="#49623e" opacity="0.4"/><rect x="198" y="104" width="3" height="3" fill="#49623e" opacity="0.4"/><rect x="205" y="104" width="3" height="3" fill="#fff2c8" opacity="0.95"/><rect x="198" y="112" width="3" height="3" fill="#49623e" opacity="0.4"/><rect x="205" y="112" width="3" height="3" fill="#49623e" opacity="0.4"/><rect x="198" y="120" width="3" height="3" fill="#fff2c8" opacity="0.95"/><rect x="205" y="120" width="3" height="3" fill="#49623e" opacity="0.4"/><rect x="198" y="128" width="3" height="3" fill="#49623e" opacity="0.4"/><rect x="205" y="128" width="3" height="3" fill="#49623e" opacity="0.4"/><rect x="0" y="130" width="360" height="30" fill="#6c9a52"/><rect x="0" y="130" width="360" height="3" fill="#597e43" opacity="0.6"/><path d="M212 132 q42 -12 86 0 Z" fill="url(#moundc100)"/><g opacity="1.0"><rect x="226.5" y="120" width="3" height="12" fill="#6b4f2a"/><circle cx="228" cy="118" r="7" fill="#3f6b3c"/><circle cx="230" cy="116" r="4" fill="#5e7d4f"/></g><g opacity="1.0"><rect x="246.5" y="120" width="3" height="12" fill="#6b4f2a"/><circle cx="248" cy="118" r="7" fill="#3f6b3c"/><circle cx="250" cy="116" r="4" fill="#5e7d4f"/></g><g opacity="1.0"><rect x="266.5" y="120" width="3" height="12" fill="#6b4f2a"/><circle cx="268" cy="118" r="7" fill="#3f6b3c"/><circle cx="270" cy="116" r="4" fill="#5e7d4f"/></g><g opacity="1.0"><rect x="286.5" y="120" width="3" height="12" fill="#6b4f2a"/><circle cx="288" cy="118" r="7" fill="#3f6b3c"/><circle cx="290" cy="116" r="4" fill="#5e7d4f"/></g><g opacity="1.0"><rect x="310.5" y="120" width="3" height="12" fill="#6b4f2a"/><circle cx="312" cy="118" r="7" fill="#3f6b3c"/><circle cx="314" cy="116" r="4" fill="#5e7d4f"/></g><g fill="none" stroke="#2a2d26" stroke-width="1.2" stroke-linecap="round"><g><path d="M0 0 q3 -3 6 0 q3 -3 6 0" transform="translate(120,55)"/><path d="M0 0 q2.5 -2 5 0 q2.5 -2 5 0" transform="translate(140,48)"/><path d="M0 0 q3 -3 6 0 q3 -3 6 0" transform="translate(160,52)"/><animateTransform attributeName="transform" type="translate" values="0,0;180,-6;360,0" dur="30s" repeatCount="indefinite"/></g></g></svg>